<svg id="eKoQM4SGZVe1" xmlns="http://www.w3.org/2000/svg" xmlns:xlink="http://www.w3.org/1999/xlink" viewBox="0 0 640 480" shape-rendering="geometricPrecision" text-rendering="geometricPrecision"><rect id="sq1" width="85.772215" height="70.172052" rx="0" ry="0" transform="translate(192.301099 141.302829)" fill="#9749f0" stroke-width="0"/><rect id="sq2" width="103.04968" height="136" rx="0" ry="0" transform="translate(93.251418 75.474881)" fill="#9749f0" stroke-width="0"/><line x1="0" y1="-70" x2="0" y2="70" transform="translate(93.251418 145.474881)" stroke="#000" stroke-width="3"/><rect width="8" height="8" rx="4" ry="4" transform="translate(89.251418 71.474881)" stroke="#000"/><rect width="8" height="8" rx="4" ry="4" transform="translate(274.073313 207.474881)" stroke="#000"/><rect width="8" height="8" rx="4" ry="4" transform="translate(274.073313 137.474881)" stroke="#000"/><rect width="8" height="8" rx="4" ry="4" transform="translate(192.301098 137.474881)" stroke="#000"/><rect width="8" height="8" rx="4" ry="4" transform="translate(192.301098 71.474881)" stroke="#000"/><rect width="8" height="8" rx="4" ry="4" transform="translate(89.251418 207.474881)" stroke="#000"/><line x1="-51.524839" y1="0" x2="51.52484" y2="0" transform="translate(144.776258 75.474881)" stroke="#000" stroke-width="3"/><line x1="0" y1="-32.913974" x2="0" y2="32.913974" transform="translate(196.301098 108.388855)" stroke="#000" stroke-width="3"/><line x1="-40.886108" y1="0" x2="40.886107" y2="0" transform="translate(237.187206 141.302829)" stroke="#000" stroke-width="3"/><line x1="0" y1="-35.086026" x2="0" y2="35.086026" transform="translate(278.073313 176.388855)" stroke="#000" stroke-width="3"/><line x1="-92.410947" y1="0" x2="92.410947" y2="0" transform="translate(185.662366 211.474881)" stroke="#000" stroke-width="3"/></svg>