<svg id="eZloDR8vIQs1" xmlns="http://www.w3.org/2000/svg" xmlns:xlink="http://www.w3.org/1999/xlink" viewBox="0 0 640 480" shape-rendering="geometricPrecision" text-rendering="geometricPrecision"><rect id="polygon-fill1" width="292.363181" height="207.227253" rx="0" ry="0" transform="translate(320 250.468665)" fill="#9749f0" stroke-width="0"/><rect id="polygon-fill2" width="290.424242" height="435.274305" rx="0" ry="0" transform="translate(29.575758 21.07681)" fill="#9749f0" stroke-width="0"/><line x1="0" y1="-173.090909" x2="0" y2="173.090909" transform="matrix(1 0 0 1.257697 29.575758 240.000001)" stroke="#000" stroke-width="3"/><line x1="-99.393939" y1="0.484849" x2="99.39394" y2="-0.484848" transform="matrix(1.468288 0 0 1 174.061071 20.591961)" stroke="#000" stroke-width="3"/><line x1="0" y1="-87.030302" x2="0" y2="87.030303" transform="matrix(-1 0 0 1.323456 320 135.287888)" stroke="#000" stroke-width="3"/><line x1="-99.878787" y1="0" x2="99.878787" y2="0" transform="matrix(1.466023 0 0 1 466.424599 250.468665)" stroke="#000" stroke-width="3"/><line x1="0" y1="-86.545454" x2="0" y2="86.545455" transform="matrix(1 0.000348-.000414 1.189447 612.849198 353.409889)" stroke="#000" stroke-width="3"/><line x1="-199.272728" y1="0" x2="199.272727" y2="0" transform="matrix(1.467151 0 0 1 320 457.695918)" stroke="#000" stroke-width="3"/><rect width="15" height="15" rx="7.5" ry="7.5" transform="translate(22.075758 14.804084)" stroke="#000"/><rect width="15" height="15" rx="7.5" ry="7.5" transform="translate(604.863181 448.851115)" stroke="#000"/><rect width="15" height="15" rx="7.5" ry="7.5" transform="translate(604.863181 242.968665)" stroke="#000"/><rect width="15" height="15" rx="7.5" ry="7.5" transform="translate(312.5 242.968665)" stroke="#000"/><rect width="15" height="15" rx="7.5" ry="7.5" transform="translate(22.075758 448.851115)" stroke="#000"/><rect width="15" height="15" rx="7.5" ry="7.5" transform="translate(312.5 12.607113)" stroke="#000"/></svg>