<?xml version="1.0" standalone="no"?>
<!DOCTYPE svg PUBLIC "-//W3C//DTD SVG 20010904//EN"
 "http://www.w3.org/TR/2001/REC-SVG-20010904/DTD/svg10.dtd">
<svg version="1.0" xmlns="http://www.w3.org/2000/svg"
 width="274.000000pt" height="255.000000pt" viewBox="0 0 274.000000 255.000000"
 preserveAspectRatio="xMidYMid meet">

<g transform="translate(0.000000,255.000000) scale(0.100000,-0.100000)"
fill="#000000" stroke="none">
<path d="M1199 2340 c-232 -39 -457 -157 -617 -324 -204 -212 -302 -453 -302
-741 0 -300 111 -558 328 -767 217 -208 468 -308 772 -308 315 0 582 111 797
331 138 142 223 294 280 499 14 51 18 103 18 245 0 217 -20 307 -106 478 -75
149 -228 322 -362 410 -130 86 -298 152 -450 177 -71 11 -290 11 -358 0z m379
-86 c217 -44 381 -132 533 -284 531 -531 302 -1426 -424 -1649 -100 -30 -187
-42 -312 -42 -459 1 -847 289 -982 728 -25 81 -27 101 -27 268 0 168 2 186 27
268 119 386 434 657 837 720 69 11 277 6 348 -9z"/>
</g>
</svg>
