<?xml version="1.0" standalone="no"?>
<!DOCTYPE svg PUBLIC "-//W3C//DTD SVG 20010904//EN"
 "http://www.w3.org/TR/2001/REC-SVG-20010904/DTD/svg10.dtd">
<svg version="1.0" xmlns="http://www.w3.org/2000/svg"
 width="274.000000pt" height="255.000000pt" viewBox="0 0 274.000000 255.000000"
 preserveAspectRatio="xMidYMid meet">

<g transform="translate(0.000000,255.000000) scale(0.100000,-0.100000)"
fill="#000000" stroke="none">
<path d="M576 2319 c-30 -24 -36 -81 -11 -109 14 -16 0 -99 -154 -889 -161
-827 -171 -873 -196 -892 -34 -27 -35 -86 -2 -117 31 -29 97 -30 122 -2 18 20
31 20 1070 20 923 0 1054 -2 1065 -15 20 -24 92 -19 118 8 26 28 30 98 7 117
-13 11 -15 71 -15 426 0 264 4 415 10 419 6 3 10 23 10 44 0 75 -89 110 -140
56 l-23 -25 -321 1 -321 0 -22 28 -21 27 61 389 c48 309 64 392 79 407 25 25
24 82 -2 108 -24 24 -78 26 -106 5 -29 -22 -1075 -22 -1094 0 -18 22 -82 19
-114 -6z m1214 -99 l22 -30 -61 -387 c-57 -363 -62 -388 -86 -410 -27 -25 -33
-69 -15 -104 13 -24 91 -27 110 -4 11 13 62 15 352 15 l339 0 35 -26 34 -26 0
-387 0 -386 -43 -42 -44 -43 -1039 0 -1040 0 -26 28 -27 27 169 864 168 864
43 38 44 38 522 1 522 0 21 -30z"/>
</g>
</svg>
