<?xml version="1.0" standalone="no"?>
<!DOCTYPE svg PUBLIC "-//W3C//DTD SVG 20010904//EN"
 "http://www.w3.org/TR/2001/REC-SVG-20010904/DTD/svg10.dtd">
<svg version="1.0" xmlns="http://www.w3.org/2000/svg"
 width="274.000000pt" height="255.000000pt" viewBox="0 0 274.000000 255.000000"
 preserveAspectRatio="xMidYMid meet">

<g transform="translate(0.000000,255.000000) scale(0.100000,-0.100000)"
fill="#000000" stroke="none">
<path d="M1461 2371 c-24 -24 -27 -69 -6 -97 12 -16 14 -92 15 -496 0 -465 -1
-479 -20 -498 -20 -20 -33 -20 -587 -20 -484 1 -571 3 -587 15 -28 21 -82 19
-106 -5 -24 -24 -26 -78 -5 -106 22 -29 22 -889 0 -918 -22 -29 -19 -82 6
-107 18 -18 28 -20 62 -14 67 12 2229 17 2241 5 17 -17 81 -12 99 8 21 23 22
85 2 102 -13 11 -15 131 -12 1019 3 553 7 1025 12 1048 6 35 4 44 -15 63 -19
19 -28 21 -63 15 -23 -5 -242 -8 -487 -8 -245 0 -464 3 -487 8 -34 6 -44 4
-62 -14z m990 -110 l29 -29 0 -988 c0 -905 -1 -989 -17 -1006 -15 -17 -62 -18
-1086 -18 l-1070 0 -23 26 -24 25 0 435 c0 421 1 435 20 454 20 20 33 20 587
20 484 -1 571 -3 587 -15 28 -21 82 -19 106 5 24 24 26 78 5 106 -12 16 -14
93 -15 497 l0 479 23 19 c21 17 46 18 435 19 l414 0 29 -29z"/>
</g>
</svg>
